,
.   http://www.scenetime.com/signup.php  ---&gt;  Hottest scene tracker on the net !!!
 
Scenetime lucky draw is started , join now and be the winner . offer is limited 

    Join Now   http://www.scenetime.com/signup.php

    seed back for speed


 



...................................NFO:.................................................
                                                                             
 :::  :::  :::::  :::   :::   :::::    ::: :::     :::    :::::    
 :::  :::  ::::::::::  :::   :::::::    ::::: :::     :::   :::::::   
 :::  ::::::::::::::::::::::::::: ::: ::: :::     :::  :::::::::  
 :::  ::: :::::::::::: :::::: ::: ::: :::     :::  ::::::  
 :::  ::: ::: :::::::::: :::  ::: ::: :::  :::     :::  ::: :::  
 :::  ::: ::: :::::::::  :::  ::: ::: :::  :::  :  :::  ::: :::  
 :::  ::: ::: :::::::::: :::  ::: ::: :::  ::: ::: :::  ::: :::  
 :::  ::: ::: ::::::::::::  ::: ::: :::  ::: : : :::  ::: :::  
 :::..::: ::: :::::: ::::::  ::: ::: :::  ::::: :::::  ::: :::  
 ::::::::: :::::: ::::::  ::: ::::: ::::: :::::  ::: :::  
  ::::  ::: ::::::  ::::::  ::: :::  ::::   ::::  ::: :::  

                                                                              
                  NOTES                    
                                                                              
                  NOTES                    
                                                                              
                                                                              
                                                                              
 Encoded By .......:UnKnOwN                                                   
 Runtime ..........:1:43                                                      
 IMDb URL .........:http://www.imdb.com/title/tt1954498/                      
 Language .........:English                                                   
 File Size ........:919mb                                                     
 Release Date ......... 2011                                                  
 Source       ......... Thanks Bud(:                                          
 File Type    ......... Single AVI                                            
 PS3 Compatible ....... Go For It                                             
 Genre        ......... Comedy/Drama                                          
                                                                              
                                                                              
 Video                                                                        
  ID                               : 0                                        
  Format                           : MPEG-4 Visual                            
  Format profile                   : Advanced Simple@L5                        
  Format settings, BVOP            : Yes                                       
  Format settings, QPel            : No                                        
  Format settings, GMC             : No warppoints                             
  Format settings, Matrix          : Custom                                    
  Codec ID                         : XVID                                      
  Codec ID/Hint                    : XviD                                      
  Duration                         : 1h 43mn                                   
  Bit rate                         : 1290Kbps                                  
  Width                            : 680ixels                                  
  Height                           : 388pixels                                 
  Display aspect ratio             : 1:77                                      
  Frame rate                       : 23.997fps                                 
  Color space                      : YUV                                       
  Chroma subsampling               : 4:2:0                                     
  Bit depth                        : 8 bits                                    
  Scan type                        : Progressive                               
  Bits/(Pixel*Frame)               : 0.234                                     
  Stream size                      : 892 MiB (86%)                             
  Writing library                  : XviD 1.2.1 (UTC 2008-12-04)              
                                                                              
                                                                              
 Audio                                                                         
 ID                               : 1                                          
 Format                           : MP3                                        
 Format/Info                      : MPEG                                       
 Mode extension                   : CM (complete main)                         
 Codec ID                         : 2000                                       
 Duration                         : 1h 43mn                                    
 Bit rate mode                    : Constant                                   
 Bit rate                         : 128kbps                                    
 Channel(s)                       : 2channels                                  
 Channel positions                : Front: L R                                 
 Sampling rate                    : 48.0 KHz                                   
 Bit depth                        : 16 bits                                    
 Stream size                      : 302 MiB                                    
 Alignment                        : Aligned on interleaves                     
 Interleave, duration             : 42 ms (1.00 video frame)                   
 Interleave, preload duration     : 512 ms                                    
                                                                              
                                                                              
                                                                              
                                                                               
                                                                              
                                                                              
                                                                              
                                 SYSPNOSIS                                                                   
 A clandestine relationship test takes an unexpected twist in this romantic   
 comedy drama. After years of playing the field, lifelong womanizer Kent  is  
 finally ready to commit. But Kent's fiance Brooke  knows a bit too much       
about his past for comfort, and she isn't quite convinced he can settle down  
  with one woman. In order to test his fidelity before the wedding,           
 Brooke enlists the aid of a red-hot temptress for hire. But when the woman                                
 hired to seduce Kent decides to steal him away from Brooke, the suspicious                          
        bride-to-be realizes that her distrust may be her undoing.                         
                                                                              
                              RELEASE INFO                                       
                                 Enjoy                                        
                                                                              
                                                                              
                                                                              
                                                                               
                                                                              
                                                                              
                                                                              
                                                                              
                                                                              
                                                                              

                 
              
                                                                              
                              LOOKING FOR                                     
                                                                              
       Someone to take a dump in my neighbors yard since i don't have         
       a dog,prefer someone with severe diarrhea plese e mail me your         
        resume.Compensation will be the priceless look on her face            
       and the feeling you get from helping another f**ked up human           
                     being such as yourself for doing it(:                    

               GREETZ & RESPECT               
  
                          NOBODY YET WILL LET YOU KNOW                        
                                                                              
                          MORE GOODIES COMING REAL SOON